<svg width="90" height="20" viewBox="0 0 90 20" fill="none" xmlns="http://www.w3.org/2000/svg">
<g id="Logo">
<g id="cebra">
<path d="M13.6872 12.4533C13.1295 15.3867 11.1272 16.24 9.22616 16.24C6.59011 16.24 4.58773 14.0533 4.58773 9.97333C4.58773 6.02667 6.61546 3.76 9.17547 3.76C11.2285 3.76 13.0788 4.90667 13.5604 7.54667H17.8187C17.2103 3.14667 13.9153 0 9.32755 0C3.57387 0 0 3.86667 0 9.97333C0 16.16 3.47248 20 9.20081 20C13.8392 20 17.261 16.9333 17.9454 12.4533H13.6872Z" fill="white"/>
<path d="M20.1252 19.6533H34.2179V15.6267H24.4595V11.7333H33.6856V7.70667H24.4595V4.32H34.2179V0.320001H20.1252V19.6533Z" fill="white"/>
<path d="M36.9322 19.6533H45.2712C49.7322 19.6533 52.6977 18.0533 52.6977 13.7067C52.6977 11.36 51.5065 10 49.7829 9.36C51.2023 8.42667 51.9627 7.12 51.9627 5.33333C51.9627 1.28 48.9718 0.320001 44.9417 0.320001H36.9322V19.6533ZM41.2664 11.44H45.3219C47.1722 11.44 48.11 12.2667 48.11 13.6267C48.11 14.9867 47.1722 15.8133 45.3219 15.8133H41.2664V11.44ZM41.2664 4.16H45.0938C46.6146 4.16 47.451 4.88 47.451 6.08C47.451 7.28 46.6146 8.05333 45.0938 8.05333H41.2664V4.16Z" fill="white"/>
<path d="M66.2801 19.6533H71.3748L66.8378 11.6267C68.9415 10.7733 70.437 9.14667 70.437 6.29333C70.437 1.49333 66.8631 0.320001 62.098 0.320001H55.0263V19.6533H59.3605V12.3733H62.3007L66.2801 19.6533ZM62.2247 4.16C64.2778 4.16 65.8493 4.56 65.8493 6.34667C65.8493 8.18667 64.2778 8.53333 62.2247 8.53333H59.3605V4.16H62.2247Z" fill="white"/>
<path d="M71.3703 19.6533H75.9833L77.0732 16.2133H84.1703L85.2855 19.6533H90L83.055 0.320001H78.2899L71.3703 19.6533ZM80.6471 5.14667L83.0043 12.5067H78.2645L80.6471 5.14667Z" fill="white"/>
</g>
</g>
</svg>
